<svg xmlns="http://www.w3.org/2000/svg" style="display: none;"><symbol id="happy" viewBox="0 0 473.931 473.931"><title>happy</title><circle style="fill:#FFC10E;" cx="236.966" cy="236.966" r="236.966"/><g> <path style="fill:#333333;" d="M383.164,237.123c-1.332,80.699-65.514,144.873-146.213,146.206 c-80.702,1.332-144.907-67.52-146.206-146.206c-0.198-12.052-18.907-12.071-18.709,0c1.5,90.921,73.993,163.414,164.914,164.914 c90.929,1.5,163.455-76.25,164.922-164.914C402.071,225.052,383.362,225.071,383.164,237.123L383.164,237.123z"/> <circle style="fill:#333333;" cx="164.937" cy="155.227" r="37.216"/> <circle style="fill:#333333;" cx="305.664" cy="155.227" r="37.216"/> </g></symbol><symbol id="sad" viewBox="0 0 473.935 473.935"><title>sad</title><circle style="fill:#FFC10E;" cx="236.967" cy="236.967" r="236.967"/><g> <path style="fill:#333333;" d="M356.671,354.1c-66.226-67.618-174.255-67.337-240.096,0.703 c-8.389,8.666,4.827,21.912,13.227,13.227c58.87-60.83,154.386-61.204,213.641-0.703C351.896,375.96,365.116,362.721,356.671,354.1 L356.671,354.1z"/> <circle style="fill:#333333;" cx="164.938" cy="155.232" r="37.216"/> <circle style="fill:#333333;" cx="305.667" cy="155.232" r="37.216"/> </g></symbol><symbol id="smile" viewBox="0 0 473.931 473.931"><title>smile</title><circle style="fill:#FFC10E;" cx="236.966" cy="236.966" r="236.966"/><g> <circle style="fill:#333333;" cx="164.937" cy="152.997" r="37.216"/> <circle style="fill:#333333;" cx="305.664" cy="152.997" r="37.216"/> <path style="fill:#333333;" d="M236.951,362.678c-41.358-0.797-78.39-16.995-107.145-46.712c-8.4-8.685-21.616,4.561-13.227,13.227 c32.119,33.197,74.218,51.307,120.372,52.194C249.025,381.618,248.999,362.906,236.951,362.678L236.951,362.678z"/> <path style="fill:#333333;" d="M120.301,105.944c19.966-16.759,42.907-27.566,68.388-32.845 c11.809-2.447,6.795-20.482-4.977-18.043c-28.722,5.953-54.218,18.836-76.639,37.661 C97.821,100.481,111.13,113.648,120.301,105.944L120.301,105.944z"/> <path style="fill:#333333;" d="M291.079,68.152c24.871,7.794,46.42,21.126,64.553,39.835c8.408,8.677,21.624-4.565,13.227-13.227 c-20.34-20.988-44.939-35.917-72.803-44.654C284.508,46.491,279.607,64.553,291.079,68.152L291.079,68.152z"/> </g></symbol></svg>